<svg
  xmlns="http://www.w3.org/2000/svg"
  width="19"
  height="19"
  viewBox="0 0 56 58"
>
  <path
    d="M 5.4648 25.0352 C 5.9102 25.4805 6.5664 25.4571 6.9882 25.0118 C 12.5195 19.1289 19.8320 16.0352 28.0117 16.0352 C 36.2382 16.0352 43.5742 19.1523 49.0819 25.0352 C 49.4803 25.4336 50.1135 25.4336 50.5354 24.9883 L 53.6525 21.8711 C 54.0274 21.4727 54.0274 20.9571 53.7226 20.5820 C 48.4258 14.0664 38.4648 9.2617 28.0117 9.2617 C 17.5586 9.2617 7.5976 14.0664 2.3007 20.5820 C 1.9726 20.9571 1.9961 21.4727 2.3711 21.8711 Z"
    fill="black"
    fill-opacity="0.27"
  />
  <path
    d="M 14.8398 34.4336 C 15.3086 34.9258 15.9180 34.8789 16.3633 34.3633 C 19.0820 31.3398 23.4882 29.1602 28.0117 29.2071 C 32.5820 29.1602 36.9648 31.4102 39.7070 34.4336 C 40.1523 34.9023 40.7382 34.9023 41.1836 34.4102 L 44.6758 30.9649 C 45.0507 30.5898 45.0976 30.0977 44.7461 29.6992 C 41.3476 25.5039 35.0429 22.4102 28.0117 22.4102 C 20.9804 22.4102 14.6758 25.5274 11.2773 29.6992 C 10.9258 30.0977 10.9726 30.5664 11.3476 30.9649 Z"
    fill="black"
    fill-opacity="0.27"
  />
  <path
    d="M 28.0117 46.7383 C 28.5039 46.7383 28.9492 46.4805 29.8164 45.6367 L 35.3007 40.3633 C 35.6523 40.0352 35.7226 39.5196 35.4180 39.1211 C 33.9414 37.2227 31.1758 35.5820 28.0117 35.5820 C 24.7773 35.5820 21.9648 37.2930 20.5117 39.2617 C 20.3007 39.5898 20.3711 40.0352 20.7226 40.3633 L 26.2070 45.6367 C 27.0742 46.4805 27.5195 46.7383 28.0117 46.7383 Z"
    fill="black"
    fill-opacity="0.27"
  />
</svg>
