<svg
  xmlns="http://www.w3.org/2000/svg"
  width="22"
  height="22"
  viewBox="0 0 56 68"
>
  <path
    d="M 47.7696 49.9727 C 48.4728 50.6758 49.6210 50.6758 50.3242 49.9727 C 51.0039 49.2461 51.0274 48.1211 50.3242 47.4180 L 8.2773 5.3711 C 7.5742 4.6680 6.4258 4.6680 5.6992 5.3711 C 5.0195 6.0508 5.0195 7.2461 5.6992 7.9258 Z"
    fill="black"
  />
  <path
    d="M 49.0819 29.6289 C 49.4803 30.0274 50.1135 30.0274 50.5584 29.5820 L 53.6525 26.4649 C 54.0274 26.0664 54.0274 25.5508 53.7226 25.1758 C 48.3087 18.7539 38.4648 13.8555 28.0117 13.8555 C 25.7382 13.8555 23.4882 14.0898 21.3086 14.5352 L 27.4961 20.6992 C 35.7695 20.5352 43.2929 23.7227 49.0819 29.6289 Z"
    fill="black"
    fill-opacity="0.27"
  />
  <path
    d="M 5.4648 29.5820 C 5.9102 30.0274 6.5664 30.0039 6.9882 29.5586 C 9.8007 26.5586 13.1055 24.3086 16.7382 22.8086 L 11.7695 17.8398 C 7.9726 19.7852 4.6914 22.3398 2.3007 25.1758 C 1.9726 25.5508 1.9961 26.0664 2.3711 26.4649 Z"
    fill="black"
    fill-opacity="0.27"
  />
  <path
    d="M 14.8398 39.0039 C 15.3086 39.4727 15.9180 39.4492 16.3633 38.9336 C 19.0586 35.9571 23.3711 33.8711 27.7539 33.8242 L 21.8007 27.8945 C 17.4180 29.0664 13.6680 31.4571 11.2773 34.2930 C 10.9258 34.6914 10.9726 35.1836 11.3476 35.5586 Z"
    fill="black"
    fill-opacity="0.27"
  />
  <path
    d="M 43.4804 36.7071 L 44.6758 35.5586 C 45.0507 35.1836 45.0976 34.6914 44.7461 34.2930 C 42.4961 31.5976 39.0039 29.3476 34.9258 28.1523 Z"
    fill="black"
    fill-opacity="0.27"
  />
  <path
    d="M 28.0351 51.3320 C 28.5273 51.3320 28.9726 51.0742 29.8398 50.2305 L 35.3242 44.9570 C 35.6758 44.6289 35.7461 44.1133 35.4414 43.7149 C 33.9648 41.8164 31.1992 40.1758 28.0351 40.1758 C 24.8007 40.1758 21.9882 41.8867 20.5351 43.8555 C 20.3242 44.1836 20.3945 44.6289 20.7461 44.9570 L 26.2304 50.2305 C 27.0976 51.0742 27.5429 51.3320 28.0351 51.3320 Z"
    fill="black"
    fill-opacity="0.27"
  />
</svg>
